# xmcd
#
# Track frame offsets:
#  150
#  12090
#  23826
#  34093
#  45695
#  54099
#  64679
#  74191
#  85048
#  97506
#  110055
#  122821
#  130099
#  139204
#  149330
#  161951
#  173431
#  184388
#  192948
#  202800
#  213692
#  226992
#  237860
#  249082
#  258937
#  269828
#  280384
#  292346
#  304331
#  313361
#  323975
#  333839
#  344951
#
# Disc length: 4751 seconds
#
# Revision: 0
# Processed by: cddbd v1.5.2PL0 Copyright (c) Steve Scherf et al.
# Submitted via: AltoMP3_Maker 3.0
#
DISCID=01128d21
DTITLE=Various Artist - Tennessee Hillbilly, 700-800 Series
DYEAR=1900
DGENRE=
TTITLE0=Billy Wallace - Southwind
TTITLE1=Randy Hughes - Roll on Freight Train
TTITLE2=Bob Williams - Pickup Truck
TTITLE3=Buddy Allen - Shine, Shave, Shower
TTITLE4=Tiny Bennett - Boogie Woogie Plowboy
TTITLE5=Dick Stratton - Pistol Boogie
TTITLE6=Ricky Riddle - Cold Icy Feet
TTITLE7=Lee Bond - Uh-Huh Honey
TTITLE8=Helen Carter - I'm All Broke out with Love
TTITLE9=Dick Stratton - I Ain't Crying over You
TTITLE10=Bob Williams - Crackers, Cheese and Beer
TTITLE11=Vaugh Bros - I've Gone and Done It Again
TTITLE12=Toby Dowdy - I'd Cut Your Water Off
TTITLE13=Randy Hughes - When Elephants Start to Roost in Trees
TTITLE14=Allen Flatt - Cheat Cheat Cheatin'
TTITLE15=Ricky Riddle - Boogie Woogie Tennessee
TTITLE16=Bob Eaton - Don't You Know Me Anymore
TTITLE17=Randy Hughes - Sweetly, Neatly and So Completely
TTITLE18=Billy Wallace - I'm Gonna Turn You A-Loose
TTITLE19=Dick Stratton - Love, Love, Love
TTITLE20=Allen Flatt - All I Like Being a Monkey
TTITLE21=Kirk McGee - Ramblers Blues
TTITLE22=Bob Williams - So Don't You Weep
TTITLE23=Lee Bond - Wild Cattin' Woman
TTITLE24=Randy Hughes - Tatooed Lady
TTITLE25=Bob Williams - Waiting for the Tide to Change
TTITLE26=Billy Wallace - You Got Some Explaining to Do
TTITLE27=Randy Hughes - I'd Rather Be a Rooster
TTITLE28=Bob Jennings - My Little Blue Eyes
TTITLE29=Don Davis - If You Did Half As Much Flirtin'
TTITLE30=Randy Hughes - It'll Feel So Good
TTITLE31=Billy Wallace - Dog Hauled Around
TTITLE32=Ricky Riddle - I'm So Lonesome
EXTD=
EXTT0=
EXTT1=
EXTT2=
EXTT3=
EXTT4=
EXTT5=
EXTT6=
EXTT7=
EXTT8=
EXTT9=
EXTT10=
EXTT11=
EXTT12=
EXTT13=
EXTT14=
EXTT15=
EXTT16=
EXTT17=
EXTT18=
EXTT19=
EXTT20=
EXTT21=
EXTT22=
EXTT23=
EXTT24=
EXTT25=
EXTT26=
EXTT27=
EXTT28=
EXTT29=
EXTT30=
EXTT31=
EXTT32=
PLAYORDER=
